<svg xmlns="http://www.w3.org/2000/svg" viewBox="0 0 800 450">
  <defs>
    <linearGradient id="g" x1="0" y1="0" x2="1" y2="1">
      <stop offset="0%" stop-color="#007e79"/>
      <stop offset="100%" stop-color="#00bc9a"/>
    </linearGradient>
  </defs>
  <rect width="800" height="450" rx="24" fill="url(#g)" opacity="0.12"/>
  <g>
    <rect x="40" y="40" width="720" height="280" rx="18" fill="#ffffff" fill-opacity="0.7" stroke="#000" stroke-opacity="0.06"/>
    <rect x="40" y="340" width="300" height="70" rx="16" fill="#ffffff" fill-opacity="0.7" stroke="#000" stroke-opacity="0.06"/>
    <rect x="360" y="340" width="180" height="70" rx="16" fill="#ffffff" fill-opacity="0.7" stroke="#000" stroke-opacity="0.06"/>
    <rect x="550" y="340" width="210" height="70" rx="16" fill="#ffffff" fill-opacity="0.7" stroke="#000" stroke-opacity="0.06"/>
  </g>
  <g transform="translate(70,80)">
    <path d="M40 0h160a20 20 0 0 1 20 20v140a20 20 0 0 1-20 20H40a20 20 0 0 1-20-20V20A20 20 0 0 1 40 0zm20 40h120v20H60V40zm0 40h120v20H60V80zm0 40h80v20H60v-20z" fill="#007e79" fill-opacity="0.9"/>
  </g>
  <text x="60" y="420" font-family="Segoe UI, Inter, Roboto" font-size="28" fill="#222">Cadastro de Demandas</text>
</svg>