<svg xmlns="http://www.w3.org/2000/svg" viewBox="0 0 800 450">
  <defs>
    <linearGradient id="g" x1="0" y1="0" x2="1" y2="1">
      <stop offset="0%" stop-color="#3cb5e5"/>
      <stop offset="100%" stop-color="#007e79"/>
    </linearGradient>
  </defs>
  <rect width="800" height="450" rx="24" fill="url(#g)" opacity="0.12"/>
  <g>
    <rect x="40" y="40" width="720" height="280" rx="18" fill="#ffffff" fill-opacity="0.7" stroke="#000" stroke-opacity="0.06"/>
    <rect x="40" y="340" width="300" height="70" rx="16" fill="#ffffff" fill-opacity="0.7" stroke="#000" stroke-opacity="0.06"/>
    <rect x="360" y="340" width="180" height="70" rx="16" fill="#ffffff" fill-opacity="0.7" stroke="#000" stroke-opacity="0.06"/>
    <rect x="550" y="340" width="210" height="70" rx="16" fill="#ffffff" fill-opacity="0.7" stroke="#000" stroke-opacity="0.06"/>
  </g>
  <g transform="translate(70,80)">
    <path d="M0 20A20 20 0 0 1 20 0h180a20 20 0 0 1 20 20v100a20 20 0 0 1-20 20H80l-40 40v-40H20a20 20 0 0 1-20-20V20zm90 20h20v20H90V40zm0 40h20v20H90V80zm40-40h20v20h-20V40z" fill="#3cb5e5" fill-opacity="0.9"/>
  </g>
  <text x="60" y="420" font-family="Segoe UI, Inter, Roboto" font-size="28" fill="#222">FAQ Workshop Contratos</text>
</svg>