<svg xmlns="http://www.w3.org/2000/svg" viewBox="0 0 800 450">
  <defs>
    <linearGradient id="g" x1="0" y1="0" x2="1" y2="1">
      <stop offset="0%" stop-color="#ecb11f"/>
      <stop offset="100%" stop-color="#f56605"/>
    </linearGradient>
  </defs>
  <rect width="800" height="450" rx="24" fill="url(#g)" opacity="0.12"/>
  <g>
    <rect x="40" y="40" width="720" height="280" rx="18" fill="#ffffff" fill-opacity="0.7" stroke="#000" stroke-opacity="0.06"/>
    <rect x="40" y="340" width="300" height="70" rx="16" fill="#ffffff" fill-opacity="0.7" stroke="#000" stroke-opacity="0.06"/>
    <rect x="360" y="340" width="180" height="70" rx="16" fill="#ffffff" fill-opacity="0.7" stroke="#000" stroke-opacity="0.06"/>
    <rect x="550" y="340" width="210" height="70" rx="16" fill="#ffffff" fill-opacity="0.7" stroke="#000" stroke-opacity="0.06"/>
  </g>
  <g transform="translate(70,80)">
    <path d="M0 100a100 100 0 1 0 200 0A100 100 0 0 0 0 100zm20 0a80 80 0 1 1 160 0 80 80 0 0 1-160 0zm70-60h20v60h-20V40zm-50 40h20v40H40V80zm100 10h20v30h-20v-30z" fill="#ecb11f" fill-opacity="0.9"/>
  </g>
  <text x="60" y="420" font-family="Segoe UI, Inter, Roboto" font-size="28" fill="#222">Rateio de Medição</text>
</svg>