<svg xmlns="http://www.w3.org/2000/svg" viewBox="0 0 800 450">
  <defs>
    <linearGradient id="g" x1="0" y1="0" x2="1" y2="1">
      <stop offset="0%" stop-color="#00bc9a"/>
      <stop offset="100%" stop-color="#3cb5e5"/>
    </linearGradient>
  </defs>
  <rect width="800" height="450" rx="24" fill="url(#g)" opacity="0.12"/>
  <g>
    <rect x="40" y="40" width="720" height="280" rx="18" fill="#ffffff" fill-opacity="0.7" stroke="#000" stroke-opacity="0.06"/>
    <rect x="40" y="340" width="300" height="70" rx="16" fill="#ffffff" fill-opacity="0.7" stroke="#000" stroke-opacity="0.06"/>
    <rect x="360" y="340" width="180" height="70" rx="16" fill="#ffffff" fill-opacity="0.7" stroke="#000" stroke-opacity="0.06"/>
    <rect x="550" y="340" width="210" height="70" rx="16" fill="#ffffff" fill-opacity="0.7" stroke="#000" stroke-opacity="0.06"/>
  </g>
  <g transform="translate(70,80)">
    <path d="M100 0a100 100 0 1 0 0 200 100 100 0 0 0 0-200zm-10 140l-40-40 14-14 26 26 52-52 14 14-66 66z" fill="#00bc9a" fill-opacity="0.9"/>
  </g>
  <text x="60" y="420" font-family="Segoe UI, Inter, Roboto" font-size="28" fill="#222">StatusKit (SVG/SMIL)</text>
</svg>